<svg version="1" xmlns="http://www.w3.org/2000/svg" width="2226.667" height="2226.667" viewBox="0 0 1670.000000 1670.000000"><path d="M307 248.5V409h311.3c337.6 0 319.3-.3 338.8 5.4 23.9 7 43.2 18.7 62.4 38 27.7 27.8 41.5 61.1 41.5 100.1 0 8.4-.7 18-1.6 23.6-10.3 60.3-59.8 109.1-120.4 118.4-8 1.3-30.5 1.5-138.5 1.5h-129L489.2 856.2 307 1016.4l.2 188.6.3 188.5H474c91.6.1 173.6-.1 182.3-.2l15.7-.4v-375.8l141.3-.4c154.3-.3 146.3 0 183.2-6.3 122.8-21 234.7-93.5 305.4-197.9 64-94.5 90.8-206.2 76.5-319-19.7-155.4-119.1-292.2-261.9-360.6-51.5-24.6-107.1-39.3-165.4-43.9-9-.6-120-1-328.8-1H307v160.5z"/></svg>